<?xml version="1.0" standalone="no"?>
<!DOCTYPE svg PUBLIC "-//W3C//DTD SVG 20010904//EN"
 "http://www.w3.org/TR/2001/REC-SVG-20010904/DTD/svg10.dtd">
<svg version="1.0" xmlns="http://www.w3.org/2000/svg"
 width="260.000000pt" height="260.000000pt" viewBox="0 0 260.000000 260.000000"
 preserveAspectRatio="xMidYMid meet">
<metadata>
Created by potrace 1.11, written by Peter Selinger 2001-2013
</metadata>
<g transform="translate(0.000000,260.000000) scale(0.100000,-0.100000)"
fill="#000000" stroke="none">
<path d="M460 2517 c0 -8 7 -21 16 -28 14 -11 15 -10 12 11 -3 26 -28 41 -28
17z"/>
<path d="M1022 2268 c-38 -153 -45 -179 -56 -186 -21 -13 -82 -117 -96 -162
-8 -26 -15 -101 -16 -179 -3 -159 -6 -175 -43 -221 -15 -19 -44 -64 -63 -100
-68 -125 -91 -165 -115 -196 -12 -17 -23 -36 -23 -43 0 -6 -10 -28 -23 -49
-36 -58 -97 -189 -104 -222 -3 -17 -10 -33 -14 -36 -5 -3 -9 -14 -9 -25 0 -10
-4 -19 -10 -19 -5 0 -10 3 -10 8 1 19 32 216 45 287 33 179 37 213 32 319 -3
90 -10 128 -35 201 -43 124 -60 153 -124 218 -59 59 -102 76 -155 62 -34 -8
-63 -37 -63 -63 0 -28 28 -78 107 -188 97 -137 111 -166 119 -255 7 -77 -10
-214 -27 -225 -5 -3 -9 -14 -9 -25 0 -17 -16 -60 -50 -134 -51 -108 -46 -390
7 -504 34 -71 126 -159 209 -200 57 -28 81 -33 178 -40 156 -10 496 3 527 20
38 22 69 51 69 66 0 16 5 16 68 2 80 -19 149 -5 211 42 l52 40 51 -51 c36 -37
57 -50 78 -50 16 0 32 5 35 10 8 13 52 13 60 0 12 -20 61 -10 96 19 20 17 48
33 63 37 23 5 32 1 60 -32 l34 -39 188 -3 c104 -2 207 1 228 5 40 9 72 41 78
78 2 16 -3 21 -29 23 -33 3 -33 3 -33 60 0 88 -37 141 -80 114 -28 -17 -43
-15 -58 8 -7 11 -19 20 -28 20 -20 0 -64 -48 -64 -70 0 -17 -4 -17 -47 -4 -78
24 -129 19 -163 -16 -16 -16 -34 -47 -41 -69 -9 -31 -17 -40 -40 -45 -16 -3
-46 -17 -69 -31 -22 -14 -50 -25 -63 -25 -33 0 -77 23 -77 40 -1 28 -37 95
-77 143 -55 67 -77 177 -70 357 5 144 24 336 36 365 11 26 51 281 51 323 0 37
23 44 40 12 6 -11 15 -20 20 -20 19 0 10 30 -21 64 -25 29 -30 42 -27 78 3 38
6 43 30 46 15 2 37 -2 48 -8 19 -10 21 -9 18 7 -2 14 -14 19 -50 21 l-47 3 -6
67 c-8 89 -24 157 -48 212 -55 124 -89 190 -100 190 -11 0 -57 -61 -57 -77 0
-5 -9 -19 -19 -32 -18 -24 -19 -24 -69 -8 -63 21 -148 22 -195 2 -65 -27 -80
-21 -128 48 -64 92 -72 95 -87 35z m53 -37 c8 -17 26 -42 39 -56 14 -15 27
-32 29 -38 3 -9 23 -5 68 11 75 26 153 28 223 7 28 -8 57 -13 66 -10 9 3 29
30 44 60 15 30 29 55 31 55 5 0 24 -41 65 -135 25 -57 60 -216 60 -269 0 -31
-3 -34 -38 -39 -46 -8 -78 -29 -68 -46 5 -8 12 -9 19 -2 7 5 29 12 50 16 36 7
37 7 37 -24 0 -27 -4 -31 -26 -31 -14 0 -34 5 -44 10 -13 7 -21 7 -26 -1 -8
-13 11 -27 48 -35 44 -10 51 -26 40 -86 -10 -54 -24 -140 -42 -263 -5 -38 -20
-153 -31 -255 -21 -180 -21 -189 -5 -327 18 -153 31 -191 83 -236 42 -37 42
-53 -3 -74 -33 -16 -37 -16 -48 -2 -31 43 -88 100 -94 94 -4 -3 1 -20 11 -37
18 -31 18 -32 -10 -60 -38 -38 -119 -55 -199 -42 -54 8 -59 11 -62 36 -4 31
-45 68 -76 68 -11 0 -34 7 -50 15 -35 18 -36 18 -36 1 0 -14 21 -24 93 -46 43
-13 54 -45 12 -38 -29 6 -45 -10 -24 -23 11 -7 10 -9 -3 -9 -22 0 -24 -28 -3
-36 25 -10 17 -23 -22 -41 -33 -15 -76 -17 -318 -17 -294 -1 -296 -1 -381 47
-62 34 -139 104 -163 146 -66 117 -79 351 -27 476 13 30 19 36 28 27 7 -7 33
-12 58 -12 l45 0 -3 -138 c-2 -75 1 -143 6 -151 13 -18 32 -5 32 21 0 34 69
229 102 288 47 84 61 109 100 180 20 36 50 90 68 120 17 30 39 73 49 95 10 22
26 47 35 54 10 8 24 27 32 43 8 15 18 28 22 28 4 0 18 -18 32 -40 24 -39 50
-53 50 -27 0 7 -11 28 -24 47 -39 59 -50 108 -50 225 0 93 4 117 22 154 12 25
22 49 22 54 0 12 57 96 88 129 13 15 22 33 19 40 -7 19 13 128 24 128 5 0 15
-13 24 -29z m-792 -345 c18 -7 47 -30 66 -49 31 -33 32 -37 18 -58 -21 -30
-67 -59 -94 -59 -20 0 -60 42 -90 97 -37 66 18 104 100 69z m153 -191 c30 -75
31 -109 2 -129 -31 -22 -77 -21 -85 2 -4 9 -20 37 -36 61 l-30 44 29 21 c16
12 40 31 54 43 14 12 29 21 33 20 5 -1 19 -29 33 -62z m62 -193 c15 -72 15
-107 1 -134 -12 -23 -78 -53 -89 -41 -5 4 -10 40 -13 78 -3 39 -8 80 -12 93
-6 18 -4 22 13 22 11 0 30 9 43 20 13 10 29 19 34 20 6 0 16 -26 23 -58z m-8
-199 c0 -43 -46 -241 -58 -250 -19 -15 -98 -17 -107 -3 -3 5 0 24 8 42 8 18
25 67 38 108 27 90 33 98 67 103 48 7 52 7 52 0z m1893 -740 c7 -27 12 -50 11
-51 -8 -12 -46 14 -64 43 -24 39 -20 55 15 55 20 0 26 -8 38 -47z m83 20 c21
-29 17 -78 -8 -95 -21 -14 -21 -15 17 -34 94 -46 42 -65 -180 -67 -195 -2
-223 5 -239 62 -11 40 14 96 48 105 64 17 177 -11 236 -59 8 -7 30 -15 48 -18
40 -8 50 9 34 61 -17 53 14 84 44 45z"/>
<path d="M1505 1989 c-31 -19 -55 -46 -55 -61 0 -14 84 -48 94 -38 12 12 -2
30 -25 30 -27 0 -24 25 6 44 14 9 25 23 25 31 0 19 -8 18 -45 -6z"/>
<path d="M1130 1925 c0 -10 10 -15 29 -15 37 0 48 -16 26 -40 -11 -12 -13 -20
-5 -25 13 -8 82 43 78 57 -4 12 -75 38 -105 38 -14 0 -23 -6 -23 -15z"/>
<path d="M1310 1855 c0 -14 5 -25 10 -25 16 0 12 -64 -6 -86 -11 -13 -17 -15
-20 -6 -6 13 -34 17 -34 4 0 -5 11 -19 24 -31 26 -24 24 -25 64 28 18 24 19
24 38 5 10 -11 32 -26 47 -34 25 -12 31 -12 55 2 41 25 41 42 -1 34 -41 -8
-75 6 -100 40 -16 22 -17 26 -3 46 27 38 20 48 -29 48 -41 0 -45 -2 -45 -25z"/>
<path d="M1002 1768 c3 -7 24 -14 49 -16 24 -2 48 -7 54 -13 13 -13 35 -11 35
4 0 18 -49 37 -98 37 -30 0 -42 -4 -40 -12z"/>
<path d="M1049 1699 c-39 -23 -63 -54 -53 -70 4 -7 14 -3 28 9 11 11 39 25 61
32 53 17 55 18 48 35 -7 21 -42 18 -84 -6z"/>
<path d="M1401 1324 c-63 -45 -202 -53 -279 -17 -38 18 -55 10 -26 -12 34 -28
68 -37 145 -38 62 -1 88 3 147 27 40 16 72 35 72 43 0 18 -31 16 -59 -3z"/>
<path d="M1060 1122 c0 -33 108 -72 200 -72 89 0 210 41 210 71 0 12 -33 12
-45 0 -20 -18 -110 -41 -159 -41 -56 0 -153 23 -169 39 -13 13 -37 14 -37 3z"/>
<path d="M1307 919 c-26 -20 -32 -20 -73 -9 -34 10 -48 10 -57 1 -21 -21 10
-34 81 -35 72 -1 110 18 98 49 -7 20 -15 19 -49 -6z"/>
<path d="M1210 751 c0 -31 78 -51 138 -35 45 12 24 30 -35 30 -32 -1 -68 3
-80 7 -14 5 -23 4 -23 -2z"/>
<path d="M2410 435 c0 -8 7 -15 15 -15 8 0 15 7 15 15 0 8 -7 15 -15 15 -8 0
-15 -7 -15 -15z"/>
<path d="M2195 2270 c-11 -17 5 -32 21 -19 7 6 11 15 8 20 -7 12 -21 11 -29
-1z"/>
<path d="M2320 1340 c-12 -7 -12 -12 -3 -21 10 -10 14 -9 19 5 8 22 2 27 -16
16z"/>
<path d="M0 365 c0 -13 21 -15 141 -15 108 0 140 3 137 13 -3 9 -43 13 -141
15 -117 2 -137 0 -137 -13z"/>
<path d="M637 254 c-15 -16 9 -24 69 -24 50 0 64 3 64 15 0 12 -14 15 -63 15
-35 0 -67 -3 -70 -6z"/>
<path d="M1067 253 c-20 -19 12 -23 213 -23 189 0 220 2 220 15 0 13 -30 15
-213 15 -118 0 -217 -3 -220 -7z"/>
<path d="M352 179 c2 -6 7 -10 11 -10 4 1 169 1 367 1 233 0 360 4 360 10 0 6
-130 10 -371 10 -260 0 -370 -3 -367 -11z"/>
</g>
</svg>
